<svg width="27" height="24" viewBox="0 0 27 24" fill="none" xmlns="http://www.w3.org/2000/svg">
    <path fill-rule="evenodd" clip-rule="evenodd" d="M16.8422 2.20263L26.2647 18.5556C26.472 19.0437 26.5628 19.4406 26.5887 19.8529C26.6405 20.8163 26.3036 21.7527 25.6426 22.4733C24.9816 23.1913 24.0873 23.6152 23.1152 23.6666H4.14062C3.73884 23.6422 3.33705 23.551 2.96119 23.4097C1.08188 22.6518 0.174624 20.5196 0.93931 18.6712L10.4266 2.19107C10.7506 1.61176 11.2431 1.11209 11.8523 0.790966C13.615 -0.186537 15.8572 0.455712 16.8422 2.20263ZM14.7575 12.9798C14.7575 13.5963 14.252 14.1114 13.6299 14.1114C13.0078 14.1114 12.4894 13.5963 12.4894 12.9798V9.34591C12.4894 8.72806 13.0078 8.2284 13.6299 8.2284C14.252 8.2284 14.7575 8.72806 14.7575 9.34591V12.9798ZM13.6299 18.5042C13.0078 18.5042 12.4894 17.9891 12.4894 17.3738C12.4894 16.756 13.0078 16.2422 13.6299 16.2422C14.252 16.2422 14.7575 16.7444 14.7575 17.3597C14.7575 17.9891 14.252 18.5042 13.6299 18.5042Z" fill="url(#paint0_linear)"/>
    <defs>
        <linearGradient id="paint0_linear" x1="1.18649" y1="11.9999" x2="27.1124" y2="11.9999" gradientUnits="userSpaceOnUse">
            <stop stop-color="#FAAB19"/>
            <stop offset="1" stop-color="#FECD0A"/>
        </linearGradient>
    </defs>
</svg>